<svg xmlns="http://www.w3.org/2000/svg" viewBox="0 0 746 710.5"><defs><style>.cls-1{fill:#eaeaea;}.cls-2,.cls-8{opacity:0.85;font-family:PTMono-Bold, PT Mono;font-weight:700;}.cls-2{font-size:36px;}.cls-3{letter-spacing:-0.02em;}.cls-4{opacity:0.5;font-size:26px;font-family:PTMono-Regular, PT Mono;}.cls-5{fill:#91eeff;}.cls-6{fill:#7dff9c;}.cls-7{fill:#dbaaff;}.cls-8{font-size:30px;}</style></defs><title>Layer 1</title><g id="Layer_2" data-name="Layer 2"><g id="Layer_1-2" data-name="Layer 1"><rect class="cls-1" width="746" height="245" rx="33.16"/><text class="cls-2" transform="translate(146.56 57.84)">Multiplayer Card Gam<tspan class="cls-3" x="431.99" y="0">e</tspan></text><text class="cls-4" transform="translate(93 112.45)">WebSockets</text><text class="cls-4" transform="translate(93 159.02)">Game Logic</text><text class="cls-4" transform="translate(93 209.21)">REST API</text><text class="cls-4" transform="translate(325.4 112.45)">Game Driver</text><text class="cls-4" transform="translate(325.4 159.02)">Game Art &amp; Animations</text><text class="cls-4" transform="translate(325.4 209.21)">Player IO</text><polygon class="cls-1" points="388.56 350.1 388.56 289.29 357.44 289.29 357.44 350.1 331 350.1 373 392.1 415 350.1 388.56 350.1"/><path class="cls-5" d="M33.16,449H232V694H33.16A33.16,33.16,0,0,1,0,660.84V482.16A33.16,33.16,0,0,1,33.16,449Z"/><rect class="cls-6" x="264" y="449" width="216" height="245"/><path class="cls-7" d="M746,482.16V660.84A33.16,33.16,0,0,1,712.84,694H512V449H712.84A33.16,33.16,0,0,1,746,482.16Z"/><rect x="226" y="430.5" width="6" height="280"/><rect x="512" y="430.5" width="6" height="280"/><rect x="264" y="430.5" width="6" height="280"/><rect x="474" y="430.5" width="6" height="280"/><text class="cls-8" transform="translate(26 503.22)">Estimation<tspan x="45" y="36">Logic</tspan></text><text class="cls-8" transform="translate(345 503.22)">Web<tspan x="-27" y="36">Server</tspan></text><text class="cls-8" transform="translate(593 503.22)">Game<tspan x="-18" y="36">Client</tspan></text><text class="cls-4" transform="translate(38 609.49)">Game Logic</text><text class="cls-4" transform="translate(309.6 659.49)">REST API</text><text class="cls-4" transform="translate(294 609.49)">WebSockets</text><text class="cls-4" transform="translate(30.2 659.49)">Game Driver</text><text class="cls-4" transform="translate(558.8 609.49)">Player IO</text><text class="cls-4" transform="translate(566.6 659.49)">Game Art</text></g></g></svg>